<svg width="20" height="20" viewBox="0 0 20 20" fill="none" xmlns="http://www.w3.org/2000/svg">
<path fill-rule="evenodd" clip-rule="evenodd" d="M9.99935 17.0837C10.7685 17.0837 11.6783 16.5575 12.463 15.2497C12.6925 14.8673 12.8994 14.4342 13.0769 13.9587H6.92176C7.09925 14.4342 7.30622 14.8673 7.53568 15.2497C8.32034 16.5575 9.23018 17.0837 9.99935 17.0837ZM6.54867 12.7087C6.35754 11.8802 6.24935 10.9676 6.24935 10.0003C6.24935 9.03308 6.35754 8.12042 6.54867 7.29199H13.45C13.6412 8.12042 13.7493 9.03308 13.7493 10.0003C13.7493 10.9676 13.6412 11.8802 13.45 12.7087H6.54867ZM14.4003 13.9587C14.1152 14.8377 13.7379 15.6216 13.2902 16.2744C14.3314 15.7272 15.2198 14.9283 15.8743 13.9587H14.4003ZM16.5464 12.7087H14.7293C14.9043 11.8595 14.9993 10.9484 14.9993 10.0003C14.9993 9.05224 14.9043 8.14113 14.7293 7.29199H16.5464C16.892 8.12634 17.0827 9.04108 17.0827 10.0003C17.0827 10.9596 16.892 11.8743 16.5464 12.7087ZM5.26934 12.7087H3.45222C3.1067 11.8743 2.91602 10.9596 2.91602 10.0003C2.91602 9.04108 3.1067 8.12634 3.45222 7.29199H5.26934C5.09435 8.14113 4.99935 9.05224 4.99935 10.0003C4.99935 10.9484 5.09435 11.8595 5.26934 12.7087ZM4.12437 13.9587H5.59832C5.88354 14.8377 6.26078 15.6216 6.70853 16.2744C5.6673 15.7272 4.77897 14.9283 4.12437 13.9587ZM6.92176 6.04199H13.0769C12.8994 5.56643 12.6925 5.13333 12.463 4.75089C11.6783 3.44313 10.7685 2.91699 9.99935 2.91699C9.23018 2.91699 8.32034 3.44313 7.53568 4.75089C7.30622 5.13333 7.09925 5.56643 6.92176 6.04199ZM14.4003 6.04199H15.8743C15.2198 5.07234 14.3314 4.27348 13.2902 3.72621C13.7379 4.3791 14.1152 5.16299 14.4003 6.04199ZM6.70853 3.72621C6.26078 4.37911 5.88353 5.16299 5.59832 6.04199H4.12437C4.77897 5.07234 5.6673 4.27348 6.70853 3.72621ZM9.99935 1.66699C14.6017 1.66699 18.3327 5.39795 18.3327 10.0003C18.3327 14.6027 14.6017 18.3337 9.99935 18.3337C5.39697 18.3337 1.66602 14.6027 1.66602 10.0003C1.66602 5.39795 5.39697 1.66699 9.99935 1.66699Z" fill="#212121"/>
</svg>
